<?xml version="1.0" standalone="no"?>
<!DOCTYPE svg PUBLIC "-//W3C//DTD SVG 20010904//EN"
 "http://www.w3.org/TR/2001/REC-SVG-20010904/DTD/svg10.dtd">
<svg version="1.0" xmlns="http://www.w3.org/2000/svg"
 width="200.000000pt" height="200.000000pt" viewBox="0 0 200.000000 200.000000"
 preserveAspectRatio="xMidYMid meet">

<g transform="translate(0.000000,200.000000) scale(0.100000,-0.100000)"
fill="#000000" stroke="none">
<path d="M0 1000 l0 -1000 1000 0 1000 0 0 1000 0 1000 -1000 0 -1000 0 0
-1000z m1418 893 c-230 -2 -606 -2 -835 0 -230 1 -42 2 417 2 459 0 647 -1
418 -2z m-1278 -7 c0 -2 -8 -10 -17 -17 -16 -13 -17 -12 -4 4 13 16 21 21 21
13z m992 -275 c8 -7 -50 -101 -63 -101 -13 0 -61 99 -54 111 7 10 104 2 117
-10z m-93 -108 c15 -76 14 -113 -2 -113 -22 0 -128 39 -145 52 -12 11 -6 20
44 65 33 29 66 53 75 53 12 0 19 -16 28 -57z m-20 -127 c16 -16 13 -21 -77
-121 -65 -74 -75 -70 -114 45 -31 93 -34 116 -16 122 21 7 192 -32 207 -46z
m53 -43 c25 -29 138 -231 138 -246 0 -32 -26 -38 -170 -35 -119 3 -145 6 -153
19 -16 26 130 279 161 279 5 0 16 -8 24 -17z m-444 -477 c2 -9 -10 -32 -27
-52 -27 -30 -31 -42 -31 -91 0 -53 1 -55 23 -49 12 3 57 6 99 6 l77 0 6 38 c3
20 16 57 28 82 20 40 26 45 60 48 28 2 37 0 37 -12 0 -11 -10 -16 -31 -16 -25
0 -32 -6 -43 -32 -7 -18 -16 -50 -19 -70 -5 -36 -5 -37 30 -40 54 -4 55 -28 3
-28 l-43 0 7 -60 c4 -33 12 -74 18 -90 12 -35 5 -48 -16 -31 -16 14 -36 94
-36 146 l0 35 -52 0 c-29 0 -76 -3 -104 -6 -51 -6 -51 -7 -63 -53 -22 -84 -73
-124 -159 -124 -60 0 -104 17 -136 51 -25 29 -10 50 18 24 35 -33 62 -42 120
-42 66 0 110 31 126 88 14 51 14 52 -20 52 -20 0 -30 5 -30 15 0 10 10 15 34
15 l34 0 4 59 3 59 -50 6 c-188 23 -219 20 -237 -20 -10 -20 -8 -29 10 -54 30
-40 7 -53 -26 -15 -30 35 -24 79 14 113 30 26 85 29 208 10 74 -11 80 -11 90
7 31 52 67 68 74 31z m830 -155 c20 -12 10 -46 -14 -49 -25 -4 -40 24 -23 44
13 16 19 17 37 5z m-104 -73 c2 -7 11 -37 21 -66 9 -29 14 -59 11 -67 -4 -13
-2 -13 14 -5 14 8 20 23 22 62 3 53 28 83 28 34 0 -14 5 -26 10 -26 6 0 10 -9
10 -19 0 -11 -4 -23 -10 -26 -16 -10 -11 -25 8 -25 23 0 57 35 44 44 -14 8 -4
41 19 62 28 25 49 11 49 -33 l1 -38 15 27 c35 66 84 56 84 -18 0 -24 5 -44 11
-44 5 0 7 4 4 10 -3 5 0 7 7 5 8 -3 21 8 31 25 21 34 37 39 37 11 0 -26 -53
-81 -78 -81 -28 0 -40 19 -44 70 l-3 45 -34 -58 c-34 -60 -67 -74 -65 -30 0
21 -1 20 -33 -8 -38 -33 -42 -34 -68 -15 -16 12 -22 12 -42 -1 -15 -10 -33
-13 -51 -8 -15 4 -41 6 -58 6 -41 -1 -58 20 -56 71 2 39 1 40 -17 24 -10 -9
-26 -34 -36 -56 -11 -25 -25 -40 -36 -40 -15 0 -19 10 -21 56 l-3 56 -30 -54
c-34 -58 -58 -68 -63 -27 l-3 27 -54 -29 c-66 -35 -98 -37 -119 -7 -33 47 -9
101 50 112 43 9 64 -6 64 -45 0 -20 4 -27 14 -23 8 3 12 13 9 23 -6 24 30 66
50 58 12 -5 17 -19 17 -49 l0 -43 22 37 c35 60 81 62 81 4 0 -33 3 -33 22 3
32 63 85 47 85 -25 0 -77 40 -45 46 37 3 28 7 55 10 60 8 13 24 11 28 -3z m64
-525 c-230 -2 -606 -2 -835 0 -230 1 -42 2 417 2 459 0 647 -1 418 -2z"/>
<path d="M879 547 c-16 -34 -5 -57 26 -57 30 0 30 -3 5 44 l-19 39 -12 -26z"/>
<path d="M1346 514 c-4 -9 -4 -19 -1 -22 2 -3 7 3 11 12 4 9 4 19 1 22 -2 3
-7 -3 -11 -12z"/>
</g>
</svg>
